<svg width="1444" height="200" viewBox="0 0 1444 200" fill="none" xmlns="http://www.w3.org/2000/svg">
<path d="M148.84 29.0311L202.163 158.474L254.02 31.4306C256.064 26.1872 257.575 21.7436 258.553 18.0998C259.53 14.456 260.019 11.3455 260.019 8.76821C260.019 7.96836 259.974 7.16851 259.886 6.36866C259.797 5.47994 259.663 4.8134 259.486 4.36904V3.8358H285.881V4.36904C284.103 6.32423 282.148 9.43475 280.015 13.7006C277.971 17.9665 275.572 23.2544 272.817 29.5643L201.63 199.133H191.498L139.641 73.2895L92.317 199.133H82.3189L16.9978 36.0964C15.3981 32.2749 13.7539 28.5867 12.0653 25.0318C10.4656 21.4769 8.91038 18.2775 7.39955 15.4336C5.97759 12.5897 4.68895 10.1902 3.53361 8.23498C2.2894 6.27979 1.40067 4.99114 0.867441 4.36904V3.8358H37.7939V4.36904C37.6161 5.34663 37.5272 6.10205 37.5272 6.63528C37.5272 7.16851 37.5272 7.79062 37.5272 8.5016C37.5272 11.5233 37.8383 14.7227 38.4604 18.0998C39.1714 21.4769 40.5045 25.5651 42.4597 30.3642L92.5836 157.007L140.441 29.5643L148.84 29.0311ZM302.278 194.467C302.811 192.6 303.3 190.29 303.744 187.535C304.188 184.78 304.588 181.358 304.944 177.27C305.299 173.182 305.566 168.338 305.744 162.739C305.921 157.052 306.01 150.431 306.01 142.876V56.0927C306.01 48.5385 305.921 41.962 305.744 36.363C305.566 30.6752 305.299 25.7872 304.944 21.6991C304.588 17.5221 304.188 14.0561 303.744 11.3011C303.3 8.54603 302.811 6.23535 302.278 4.36904V3.8358H334.138V4.36904C333.605 6.23535 333.072 8.54603 332.539 11.3011C332.094 14.0561 331.694 17.5221 331.339 21.6991C331.072 25.7872 330.806 30.6752 330.539 36.363C330.361 41.962 330.272 48.5385 330.272 56.0927V142.876C330.272 150.431 330.361 157.052 330.539 162.739C330.806 168.338 331.072 173.182 331.339 177.27C331.694 181.358 332.094 184.78 332.539 187.535C333.072 190.29 333.605 192.6 334.138 194.467V195H302.278V194.467ZM423.855 15.5669C413.368 15.5669 403.903 16.0557 395.46 17.0333C387.017 17.9221 379.73 18.8996 373.598 19.9661C366.488 21.2992 360.133 22.7656 354.535 24.3653L358.4 2.76934C359.467 2.85821 361.067 2.94708 363.2 3.03595C365.332 3.12483 367.688 3.2137 370.265 3.30257C372.931 3.39144 375.686 3.48031 378.53 3.56919C381.463 3.56919 384.218 3.61362 386.795 3.70249C389.372 3.70249 391.639 3.74693 393.594 3.8358C395.638 3.8358 397.104 3.8358 397.993 3.8358H474.112C475.001 3.8358 476.423 3.8358 478.378 3.8358C480.422 3.74693 482.733 3.70249 485.31 3.70249C487.887 3.61362 490.598 3.56919 493.442 3.56919C496.375 3.48031 499.13 3.39144 501.707 3.30257C504.373 3.2137 506.773 3.12483 508.906 3.03595C511.039 2.94708 512.638 2.85821 513.705 2.76934L517.571 24.3653C511.883 22.7656 505.484 21.2992 498.374 19.9661C492.242 18.8996 484.955 17.9221 476.512 17.0333C468.069 16.0557 458.604 15.5669 448.117 15.5669V142.876C448.117 150.431 448.206 157.052 448.384 162.739C448.65 168.338 448.917 173.182 449.183 177.27C449.539 181.358 449.939 184.78 450.383 187.535C450.916 190.29 451.45 192.6 451.983 194.467V195H420.122V194.467C420.655 192.6 421.144 190.29 421.589 187.535C422.033 184.78 422.433 181.358 422.788 177.27C423.144 173.182 423.411 168.338 423.588 162.739C423.766 157.052 423.855 150.431 423.855 142.876V15.5669ZM669.009 103.55C665.454 103.462 661.01 103.417 655.678 103.417C650.346 103.328 644.525 103.239 638.215 103.151C631.994 103.062 625.462 103.017 618.618 103.017C611.864 102.928 605.243 102.884 598.755 102.884C592.268 102.795 586.091 102.795 580.226 102.884C574.36 102.973 569.25 103.106 564.895 103.284V142.876C564.895 150.431 564.984 157.052 565.162 162.739C565.428 168.338 565.695 173.182 565.962 177.27C566.317 181.358 566.717 184.78 567.161 187.535C567.695 190.29 568.228 192.6 568.761 194.467V195H536.767V194.467C537.3 192.6 537.789 190.29 538.233 187.535C538.767 184.78 539.211 181.358 539.567 177.27C539.922 173.182 540.189 168.338 540.366 162.739C540.544 157.052 540.633 150.431 540.633 142.876V56.0927C540.633 48.5385 540.544 41.962 540.366 36.363C540.189 30.6752 539.922 25.7872 539.567 21.6991C539.211 17.5221 538.767 14.0561 538.233 11.3011C537.789 8.54603 537.3 6.23535 536.767 4.36904V3.8358H568.761V4.36904C568.228 6.23535 567.695 8.54603 567.161 11.3011C566.717 14.0561 566.317 17.5221 565.962 21.6991C565.695 25.7872 565.428 30.6752 565.162 36.363C564.984 41.962 564.895 48.5385 564.895 56.0927V90.2196C569.516 90.3974 574.76 90.5307 580.626 90.6195C586.491 90.6195 592.623 90.6195 599.022 90.6195C605.421 90.5307 611.909 90.4418 618.485 90.3529C625.151 90.2641 631.549 90.1752 637.682 90.0863C643.903 89.9086 649.679 89.7308 655.012 89.5531C660.433 89.3753 665.099 89.1976 669.009 89.0198V56.0927C669.009 48.5385 668.876 41.962 668.609 36.363C668.431 30.6752 668.165 25.7872 667.809 21.6991C667.543 17.5221 667.143 14.0561 666.609 11.3011C666.165 8.54603 665.676 6.23535 665.143 4.36904V3.8358H697.137V4.36904C696.604 6.23535 696.071 8.54603 695.537 11.3011C695.093 14.0561 694.693 17.5221 694.338 21.6991C693.982 25.7872 693.715 30.6752 693.538 36.363C693.36 41.962 693.271 48.5385 693.271 56.0927V142.876C693.271 150.431 693.36 157.052 693.538 162.739C693.715 168.338 693.982 173.182 694.338 177.27C694.693 181.358 695.093 184.78 695.537 187.535C696.071 190.29 696.604 192.6 697.137 194.467V195H665.143V194.467C665.676 192.6 666.165 190.29 666.609 187.535C667.143 184.78 667.543 181.358 667.809 177.27C668.165 173.182 668.431 168.338 668.609 162.739C668.876 157.052 669.009 150.431 669.009 142.876V103.55ZM845.376 183.269C855.863 183.269 865.505 182.825 874.304 181.936C883.102 181.047 890.79 180.025 897.366 178.87C905.009 177.625 911.986 176.159 918.296 174.471L914.43 196.066C913.363 195.978 911.763 195.889 909.631 195.8C907.498 195.711 905.098 195.622 902.432 195.533C899.855 195.444 897.1 195.355 894.167 195.267C891.323 195.267 888.612 195.222 886.035 195.133C883.458 195.133 881.147 195.089 879.103 195C877.148 195 875.726 195 874.837 195H817.248V194.467C817.781 192.6 818.27 190.29 818.714 187.535C819.247 184.78 819.692 181.358 820.047 177.27C820.403 173.182 820.669 168.338 820.847 162.739C821.025 157.052 821.114 150.431 821.114 142.876V56.0927C821.114 48.5385 821.025 41.962 820.847 36.363C820.669 30.6752 820.403 25.7872 820.047 21.6991C819.692 17.5221 819.247 14.0561 818.714 11.3011C818.27 8.54603 817.781 6.23535 817.248 4.36904V3.8358H849.242V4.36904C848.709 6.23535 848.175 8.54603 847.642 11.3011C847.198 14.0561 846.798 17.5221 846.442 21.6991C846.176 25.7872 845.909 30.6752 845.643 36.363C845.465 41.962 845.376 48.5385 845.376 56.0927V183.269ZM1030.01 0.636402C1044.85 0.636402 1058.54 3.08039 1071.07 7.96836C1083.69 12.7675 1094.57 19.5662 1103.73 28.3645C1112.88 37.074 1120.04 47.5609 1125.19 59.8253C1130.34 72.0897 1132.92 85.6427 1132.92 100.484C1132.92 108.927 1131.94 117.237 1129.99 125.413C1128.03 133.589 1125.15 141.321 1121.32 148.609C1117.59 155.896 1112.97 162.651 1107.46 168.872C1101.95 175.004 1095.64 180.336 1088.53 184.869C1081.51 189.312 1073.73 192.778 1065.2 195.267C1056.67 197.844 1047.47 199.133 1037.61 199.133C1022.76 199.133 1009.03 196.777 996.414 192.067C983.883 187.268 973.041 180.514 963.887 171.804C954.733 163.095 947.579 152.652 942.424 140.477C937.27 128.213 934.693 114.615 934.693 99.6845C934.693 91.2417 935.67 82.9321 937.625 74.7559C939.58 66.5796 942.424 58.8033 946.157 51.4269C949.979 44.0505 954.6 37.2962 960.021 31.164C965.531 24.943 971.797 19.5662 978.818 15.0337C985.927 10.5012 993.748 6.99077 1002.28 4.50235C1010.9 1.92505 1020.14 0.636402 1030.01 0.636402ZM1037.61 187.135C1047.47 187.135 1056.49 185.357 1064.67 181.802C1072.84 178.248 1079.87 173.093 1085.73 166.339C1091.69 159.584 1096.31 151.364 1099.59 141.677C1102.88 131.901 1104.53 120.836 1104.53 108.483C1104.53 94.7965 1102.93 82.1323 1099.73 70.49C1096.62 58.7589 1091.95 48.6274 1085.73 40.0957C1079.51 31.4751 1071.73 24.7652 1062.4 19.9661C1053.16 15.0781 1042.36 12.6342 1030.01 12.6342C1020.14 12.6342 1011.12 14.4116 1002.95 17.9665C994.77 21.4325 987.705 26.4982 981.75 33.1636C975.885 39.8291 971.308 48.0053 968.02 57.6924C964.731 67.3795 963.087 78.3996 963.087 90.7529C963.087 104.35 964.642 117.059 967.753 128.879C970.864 140.61 975.529 150.786 981.75 159.407C987.971 168.027 995.748 174.826 1005.08 179.803C1014.41 184.691 1025.25 187.135 1037.61 187.135ZM1175.05 3.8358V4.36904C1174.87 4.8134 1174.74 5.47994 1174.65 6.36866C1174.56 7.25738 1174.51 8.05723 1174.51 8.76821C1174.51 11.5233 1174.87 14.5893 1175.58 17.9665C1176.38 21.2548 1177.85 25.3873 1179.98 30.3642L1239.04 163.539L1296.09 31.4306C1297.42 28.1424 1298.85 24.543 1300.36 20.6327C1301.87 16.7223 1302.62 12.7675 1302.62 8.76821C1302.62 7.70175 1302.53 6.81302 1302.36 6.10205C1302.18 5.3022 1302 4.72453 1301.82 4.36904V3.8358H1329.15V4.36904C1327.46 6.05761 1325.42 9.07927 1323.02 13.434C1320.62 17.7887 1318 23.1655 1315.15 29.5643L1238.77 199.133H1228.1L1155.72 36.0964C1154.03 32.2749 1152.25 28.5867 1150.39 25.0318C1148.61 21.4769 1146.92 18.2775 1145.32 15.4336C1143.72 12.5008 1142.3 10.0569 1141.05 8.10167C1139.81 6.14648 1138.97 4.90227 1138.52 4.36904V3.8358H1175.05ZM1342.75 3.8358C1353.86 3.8358 1364.88 3.79137 1375.81 3.70249C1386.83 3.61362 1396.92 3.52475 1406.07 3.43588C1415.22 3.25813 1423.05 3.03595 1429.53 2.76934C1436.02 2.50272 1440.42 2.14723 1442.73 1.70287L1436.2 19.4329C1433.27 18.633 1429.84 17.9221 1425.93 17.2999C1422.56 16.7667 1418.42 16.2779 1413.54 15.8336C1408.74 15.3003 1403.18 15.0337 1396.87 15.0337C1394.74 15.0337 1392.16 15.1226 1389.14 15.3003C1386.21 15.3892 1383.36 15.5225 1380.61 15.7002C1377.41 15.878 1374.17 16.0557 1370.88 16.2335V89.0198C1380.03 88.931 1388.3 88.6644 1395.67 88.22C1403.05 87.7756 1409.31 87.3313 1414.47 86.8869C1420.51 86.3537 1425.84 85.7316 1430.47 85.0206L1426.33 104.35C1420.2 103.55 1413.94 102.795 1407.54 102.084C1402.03 101.462 1396.03 100.929 1389.54 100.484C1383.05 99.9511 1376.83 99.6845 1370.88 99.6845V183.269C1381.36 183.269 1391.01 182.825 1399.81 181.936C1408.6 181.047 1416.29 180.025 1422.87 178.87C1430.51 177.625 1437.49 176.159 1443.8 174.471L1439.93 196.066C1438.86 195.978 1437.27 195.889 1435.13 195.8C1433 195.711 1430.6 195.622 1427.93 195.533C1425.36 195.444 1422.6 195.355 1419.67 195.267C1416.82 195.267 1414.11 195.222 1411.54 195.133C1408.96 195.133 1406.65 195.089 1404.6 195C1402.65 195 1401.23 195 1400.34 195H1342.75V194.467C1343.28 192.6 1343.77 190.29 1344.22 187.535C1344.75 184.78 1345.19 181.358 1345.55 177.27C1345.9 173.182 1346.17 168.338 1346.35 162.739C1346.53 157.052 1346.62 150.431 1346.62 142.876V56.0927C1346.62 48.5385 1346.53 41.962 1346.35 36.363C1346.17 30.6752 1345.9 25.7872 1345.55 21.6991C1345.19 17.5221 1344.75 14.0561 1344.22 11.3011C1343.77 8.54603 1343.28 6.23535 1342.75 4.36904V3.8358Z" fill="white"/>
</svg>
