<svg width="235" height="31" viewBox="0 0 235 31" fill="none" xmlns="http://www.w3.org/2000/svg">
<path d="M23.0508 4.55674L31.2254 24.4004L39.1751 4.92459C39.4885 4.12076 39.7201 3.43955 39.8699 2.88096C40.0198 2.32236 40.0947 1.84551 40.0947 1.45041C40.0947 1.32779 40.0879 1.20517 40.0743 1.08256C40.0607 0.946314 40.0403 0.844132 40.013 0.776011V0.694266H44.0594V0.776011C43.7869 1.07574 43.4872 1.55259 43.1602 2.20656C42.8468 2.86052 42.479 3.67116 42.0566 4.63848L31.1436 30.6335H29.5905L21.6407 11.3416L14.3858 30.6335H12.8531L2.83927 5.63986C2.59404 5.05402 2.34199 4.48862 2.08313 3.94365C1.83789 3.39868 1.59947 2.9082 1.36785 2.47223C1.14987 2.03625 0.952315 1.6684 0.7752 1.36867C0.584461 1.06893 0.448218 0.871381 0.366473 0.776011V0.694266H6.02734V0.776011C6.0001 0.925878 5.98647 1.04168 5.98647 1.12343C5.98647 1.20517 5.98647 1.30054 5.98647 1.40954C5.98647 1.87276 6.03416 2.36323 6.12953 2.88096C6.23852 3.39868 6.44288 4.02539 6.74262 4.7611L14.4267 24.1756L21.7633 4.63848L23.0508 4.55674ZM48.2472 29.9183C48.329 29.6321 48.4039 29.2779 48.472 28.8556C48.5401 28.4332 48.6014 27.9087 48.6559 27.282C48.7104 26.6552 48.7513 25.9127 48.7786 25.0544C48.8058 24.1825 48.8194 23.1674 48.8194 22.0094V8.70532C48.8194 7.54726 48.8058 6.53906 48.7786 5.68074C48.7513 4.80879 48.7104 4.05945 48.6559 3.43274C48.6014 2.7924 48.5401 2.26105 48.472 1.8387C48.4039 1.41635 48.329 1.06212 48.2472 0.776011V0.694266H53.1315V0.776011C53.0498 1.06212 52.968 1.41635 52.8863 1.8387C52.8181 2.26105 52.7568 2.7924 52.7023 3.43274C52.6615 4.05945 52.6206 4.80879 52.5797 5.68074C52.5525 6.53906 52.5389 7.54726 52.5389 8.70532V22.0094C52.5389 23.1674 52.5525 24.1825 52.5797 25.0544C52.6206 25.9127 52.6615 26.6552 52.7023 27.282C52.7568 27.9087 52.8181 28.4332 52.8863 28.8556C52.968 29.2779 53.0498 29.6321 53.1315 29.9183V30H48.2472V29.9183ZM68.5593 2.49267C66.9517 2.49267 65.5007 2.5676 64.2064 2.71746C62.9121 2.85371 61.7949 3.00357 60.8548 3.16706C59.7649 3.37143 58.7907 3.59623 57.9324 3.84146L58.5251 0.530775C58.6886 0.544399 58.9338 0.558023 59.2608 0.571648C59.5878 0.585272 59.9488 0.598896 60.3439 0.61252C60.7526 0.626145 61.175 0.639769 61.611 0.653393C62.0606 0.653393 62.4829 0.660205 62.878 0.673829C63.2731 0.673829 63.6205 0.680641 63.9203 0.694266C64.2336 0.694266 64.4584 0.694266 64.5947 0.694266H76.2638C76.4001 0.694266 76.6181 0.694266 76.9178 0.694266C77.2312 0.680641 77.5854 0.673829 77.9805 0.673829C78.3756 0.660205 78.7911 0.653393 79.2271 0.653393C79.6767 0.639769 80.0991 0.626145 80.4942 0.61252C80.9029 0.598896 81.2707 0.585272 81.5977 0.571648C81.9247 0.558023 82.1699 0.544399 82.3334 0.530775L82.9261 3.84146C82.0541 3.59623 81.0732 3.37143 79.9832 3.16706C79.0432 3.00357 77.926 2.85371 76.6317 2.71746C75.3374 2.5676 73.8864 2.49267 72.2787 2.49267V22.0094C72.2787 23.1674 72.2924 24.1825 72.3196 25.0544C72.3605 25.9127 72.4014 26.6552 72.4422 27.282C72.4967 27.9087 72.558 28.4332 72.6262 28.8556C72.7079 29.2779 72.7896 29.6321 72.8714 29.9183V30H67.9871V29.9183C68.0689 29.6321 68.1438 29.2779 68.2119 28.8556C68.28 28.4332 68.3413 27.9087 68.3958 27.282C68.4503 26.6552 68.4912 25.9127 68.5185 25.0544C68.5457 24.1825 68.5593 23.1674 68.5593 22.0094V2.49267ZM107.816 15.9807C107.271 15.967 106.59 15.9602 105.772 15.9602C104.955 15.9466 104.062 15.933 103.095 15.9194C102.141 15.9057 101.14 15.8989 100.091 15.8989C99.0555 15.8853 98.0405 15.8785 97.046 15.8785C96.0514 15.8649 95.1045 15.8649 94.2053 15.8785C93.3061 15.8921 92.5227 15.9125 91.8551 15.9398V22.0094C91.8551 23.1674 91.8688 24.1825 91.896 25.0544C91.9369 25.9127 91.9777 26.6552 92.0186 27.282C92.0731 27.9087 92.1344 28.4332 92.2025 28.8556C92.2843 29.2779 92.366 29.6321 92.4478 29.9183V30H87.5431V29.9183C87.6248 29.6321 87.6997 29.2779 87.7679 28.8556C87.8496 28.4332 87.9177 27.9087 87.9722 27.282C88.0267 26.6552 88.0676 25.9127 88.0948 25.0544C88.1221 24.1825 88.1357 23.1674 88.1357 22.0094V8.70532C88.1357 7.54726 88.1221 6.53906 88.0948 5.68074C88.0676 4.80879 88.0267 4.05945 87.9722 3.43274C87.9177 2.7924 87.8496 2.26105 87.7679 1.8387C87.6997 1.41635 87.6248 1.06212 87.5431 0.776011V0.694266H92.4478V0.776011C92.366 1.06212 92.2843 1.41635 92.2025 1.8387C92.1344 2.26105 92.0731 2.7924 92.0186 3.43274C91.9777 4.05945 91.9369 4.80879 91.896 5.68074C91.8688 6.53906 91.8551 7.54726 91.8551 8.70532V13.937C92.5636 13.9643 93.3674 13.9847 94.2666 13.9983C95.1658 13.9983 96.1059 13.9983 97.0868 13.9983C98.0678 13.9847 99.0624 13.9711 100.071 13.9575C101.092 13.9438 102.073 13.9302 103.013 13.9166C103.967 13.8893 104.853 13.8621 105.67 13.8348C106.501 13.8076 107.216 13.7803 107.816 13.7531V8.70532C107.816 7.54726 107.795 6.53906 107.755 5.68074C107.727 4.80879 107.686 4.05945 107.632 3.43274C107.591 2.7924 107.53 2.26105 107.448 1.8387C107.38 1.41635 107.305 1.06212 107.223 0.776011V0.694266H112.128V0.776011C112.046 1.06212 111.965 1.41635 111.883 1.8387C111.815 2.26105 111.753 2.7924 111.699 3.43274C111.644 4.05945 111.603 4.80879 111.576 5.68074C111.549 6.53906 111.535 7.54726 111.535 8.70532V22.0094C111.535 23.1674 111.549 24.1825 111.576 25.0544C111.603 25.9127 111.644 26.6552 111.699 27.282C111.753 27.9087 111.815 28.4332 111.883 28.8556C111.965 29.2779 112.046 29.6321 112.128 29.9183V30H107.223V29.9183C107.305 29.6321 107.38 29.2779 107.448 28.8556C107.53 28.4332 107.591 27.9087 107.632 27.282C107.686 26.6552 107.727 25.9127 107.755 25.0544C107.795 24.1825 107.816 23.1674 107.816 22.0094V15.9807ZM138.202 28.2016C139.809 28.2016 141.287 28.1335 142.636 27.9972C143.985 27.861 145.163 27.7043 146.172 27.5272C147.343 27.3365 148.413 27.1117 149.38 26.8528L148.788 30.1635C148.624 30.1499 148.379 30.1362 148.052 30.1226C147.725 30.109 147.357 30.0954 146.948 30.0817C146.553 30.0681 146.131 30.0545 145.681 30.0409C145.245 30.0409 144.83 30.0341 144.435 30.0204C144.039 30.0204 143.685 30.0136 143.372 30C143.072 30 142.854 30 142.718 30H133.889V29.9183C133.971 29.6321 134.046 29.2779 134.114 28.8556C134.196 28.4332 134.264 27.9087 134.319 27.282C134.373 26.6552 134.414 25.9127 134.441 25.0544C134.468 24.1825 134.482 23.1674 134.482 22.0094V8.70532C134.482 7.54726 134.468 6.53906 134.441 5.68074C134.414 4.80879 134.373 4.05945 134.319 3.43274C134.264 2.7924 134.196 2.26105 134.114 1.8387C134.046 1.41635 133.971 1.06212 133.889 0.776011V0.694266H138.794V0.776011C138.712 1.06212 138.631 1.41635 138.549 1.8387C138.481 2.26105 138.419 2.7924 138.365 3.43274C138.324 4.05945 138.283 4.80879 138.242 5.68074C138.215 6.53906 138.202 7.54726 138.202 8.70532V28.2016ZM168.18 0.203793C170.455 0.203793 172.553 0.57846 174.474 1.32779C176.409 2.0635 178.078 3.10576 179.481 4.45456C180.885 5.78973 181.981 7.39739 182.772 9.27754C183.562 11.1577 183.957 13.2354 183.957 15.5106C183.957 16.8049 183.807 18.0788 183.507 19.3322C183.208 20.5857 182.765 21.771 182.179 22.8881C181.607 24.0053 180.898 25.0408 180.054 25.9945C179.209 26.9345 178.242 27.752 177.152 28.4468C176.075 29.128 174.883 29.6594 173.575 30.0409C172.267 30.436 170.857 30.6335 169.345 30.6335C167.07 30.6335 164.965 30.2725 163.03 29.5504C161.109 28.8147 159.447 27.7792 158.044 26.4441C156.64 25.1089 155.544 23.5081 154.753 21.6415C153.963 19.7614 153.568 17.6769 153.568 15.388C153.568 14.0937 153.718 12.8198 154.018 11.5664C154.317 10.313 154.753 9.12086 155.326 7.99004C155.911 6.85923 156.62 5.82379 157.451 4.88372C158.296 3.93002 159.256 3.10576 160.332 2.41092C161.422 1.71608 162.621 1.17793 163.929 0.796447C165.251 0.401345 166.668 0.203793 168.18 0.203793ZM169.345 28.7943C170.857 28.7943 172.24 28.5218 173.493 27.9768C174.747 27.4318 175.823 26.6416 176.722 25.6062C177.635 24.5707 178.344 23.3105 178.848 21.8255C179.352 20.3268 179.604 18.6306 179.604 16.7368C179.604 14.6387 179.359 12.6972 178.868 10.9124C178.391 9.11404 177.676 7.56088 176.722 6.25295C175.769 4.9314 174.577 3.90277 173.146 3.16706C171.729 2.41773 170.074 2.04307 168.18 2.04307C166.668 2.04307 165.285 2.31555 164.031 2.86052C162.778 3.39186 161.695 4.16845 160.782 5.19026C159.883 6.21208 159.181 7.46551 158.677 8.95055C158.173 10.4356 157.921 12.125 157.921 14.0188C157.921 16.1033 158.159 18.0515 158.636 19.8636C159.113 21.662 159.828 23.2219 160.782 24.5435C161.736 25.865 162.928 26.9073 164.358 27.6703C165.789 28.4196 167.451 28.7943 169.345 28.7943ZM192.089 0.694266V0.776011C192.062 0.844132 192.041 0.946314 192.028 1.08256C192.014 1.2188 192.007 1.34142 192.007 1.45041C192.007 1.87276 192.062 2.3428 192.171 2.86052C192.293 3.36462 192.518 3.99814 192.845 4.7611L201.898 25.177L210.645 4.92459C210.85 4.42049 211.067 3.86871 211.299 3.26925C211.531 2.66978 211.647 2.0635 211.647 1.45041C211.647 1.28692 211.633 1.15068 211.606 1.04168C211.578 0.919066 211.551 0.830508 211.524 0.776011V0.694266H215.713V0.776011C215.454 1.03487 215.141 1.4981 214.773 2.16568C214.405 2.83327 214.004 3.65754 213.568 4.63848L201.858 30.6335H200.223L189.126 5.63986C188.867 5.05402 188.594 4.48862 188.308 3.94365C188.036 3.39868 187.777 2.9082 187.532 2.47223C187.286 2.02263 187.068 1.64796 186.878 1.34823C186.687 1.0485 186.557 0.857757 186.489 0.776011V0.694266H192.089ZM219.472 0.694266C221.175 0.694266 222.864 0.687454 224.54 0.673829C226.23 0.660205 227.776 0.646581 229.179 0.632957C230.583 0.605708 231.782 0.571648 232.776 0.530775C233.771 0.489902 234.445 0.435405 234.799 0.367284L233.798 3.08532C233.348 2.9627 232.824 2.85371 232.224 2.75834C231.707 2.67659 231.073 2.60166 230.324 2.53354C229.588 2.45179 228.736 2.41092 227.769 2.41092C227.442 2.41092 227.047 2.42454 226.584 2.45179C226.134 2.46542 225.698 2.48585 225.276 2.5131C224.785 2.54035 224.288 2.5676 223.784 2.59485V13.7531C225.187 13.7395 226.454 13.6986 227.585 13.6305C228.716 13.5624 229.677 13.4942 230.467 13.4261C231.393 13.3444 232.211 13.249 232.919 13.14L232.286 16.1033C231.346 15.9807 230.385 15.8649 229.404 15.7559C228.559 15.6605 227.64 15.5787 226.645 15.5106C225.651 15.4289 224.697 15.388 223.784 15.388V28.2016C225.392 28.2016 226.87 28.1335 228.219 27.9972C229.568 27.861 230.746 27.7043 231.754 27.5272C232.926 27.3365 233.995 27.1117 234.963 26.8528L234.37 30.1635C234.207 30.1499 233.961 30.1362 233.634 30.1226C233.307 30.109 232.94 30.0954 232.531 30.0817C232.136 30.0681 231.713 30.0545 231.264 30.0409C230.828 30.0409 230.412 30.0341 230.017 30.0204C229.622 30.0204 229.268 30.0136 228.954 30C228.655 30 228.437 30 228.301 30H219.472V29.9183C219.554 29.6321 219.629 29.2779 219.697 28.8556C219.779 28.4332 219.847 27.9087 219.901 27.282C219.956 26.6552 219.997 25.9127 220.024 25.0544C220.051 24.1825 220.065 23.1674 220.065 22.0094V8.70532C220.065 7.54726 220.051 6.53906 220.024 5.68074C219.997 4.80879 219.956 4.05945 219.901 3.43274C219.847 2.7924 219.779 2.26105 219.697 1.8387C219.629 1.41635 219.554 1.06212 219.472 0.776011V0.694266Z" fill="black"/>
</svg>
