<svg width="419" height="336" viewBox="0 0 419 336" fill="none" xmlns="http://www.w3.org/2000/svg">
<path d="M325.21 253.016C335.923 253.016 345.774 252.562 354.762 251.654C363.75 250.746 371.604 249.702 378.322 248.522C386.13 247.25 393.257 245.752 399.703 244.027L395.754 266.089C394.664 265.999 393.03 265.908 390.851 265.817C388.672 265.726 386.221 265.636 383.497 265.545C380.864 265.454 378.05 265.363 375.054 265.272C372.148 265.272 369.379 265.227 366.746 265.136C364.113 265.136 361.753 265.091 359.665 265C357.667 265 356.215 265 355.307 265H296.475V264.455C297.019 262.549 297.519 260.188 297.973 257.374C298.517 254.559 298.971 251.064 299.334 246.887C299.698 242.711 299.97 237.763 300.152 232.043C300.333 226.233 300.424 219.469 300.424 211.751V123.095C300.424 115.378 300.333 108.659 300.152 102.939C299.97 97.1286 299.698 92.1352 299.334 87.9588C298.971 83.6917 298.517 80.1508 297.973 77.3363C297.519 74.5218 297.019 72.1613 296.475 70.2547V69.71H329.159V70.2547C328.614 72.1613 328.07 74.5218 327.525 77.3363C327.071 80.1508 326.662 83.6917 326.299 87.9588C326.027 92.1352 325.754 97.1286 325.482 102.939C325.3 108.659 325.21 115.378 325.21 123.095V253.016Z" fill="black"/>
<path d="M148.84 94.0311L202.163 223.474L254.02 96.4306C256.064 91.1872 257.575 86.7436 258.553 83.0998C259.53 79.456 260.019 76.3455 260.019 73.7682C260.019 72.9684 259.974 72.1685 259.886 71.3687C259.797 70.4799 259.663 69.8134 259.486 69.369V68.8358H285.881V69.369C284.103 71.3242 282.148 74.4348 280.015 78.7006C277.971 82.9665 275.572 88.2544 272.817 94.5643L201.63 264.133H191.498L139.641 138.289L92.317 264.133H82.3189L16.9978 101.096C15.3981 97.2749 13.7539 93.5867 12.0653 90.0318C10.4656 86.4769 8.91038 83.2775 7.39955 80.4336C5.97759 77.5897 4.68895 75.1902 3.53361 73.235C2.2894 71.2798 1.40067 69.9911 0.867441 69.369V68.8358H37.7939V69.369C37.6161 70.3466 37.5272 71.102 37.5272 71.6353C37.5272 72.1685 37.5272 72.7906 37.5272 73.5016C37.5272 76.5233 37.8383 79.7227 38.4604 83.0998C39.1714 86.4769 40.5045 90.5651 42.4597 95.3642L92.5836 222.007L140.441 94.5643L148.84 94.0311Z" fill="black"/>
</svg>
